#!OML:ASF H:\Terrain\Patient Classification 1\Terrain2\Thursday\justin.ASF
:FULLY-SPECIFIED
:DEGREES
1635
root 8.48316 17.6759 32.0323 -539.393 0.960027 -175.016
lowerback 5.82269 1.87956 4.46187
upperback 3.26812 3.10609 3.22162
thorax 0.155838 1.73773 0.64567
lowerneck -12.8045 1.41446 -9.4596
upperneck 41.1636 -2.93772 5.28118
head 17.434 -3.73076 3.06734
rclavicle -6.26172e-015 -4.53229e-014
rhumerus -27.1947 -7.74531 -80.8928
rradius 27.6382
rwrist -7.12995
rhand -19.8176 14.3301
rfingers 7.12502
rthumb 6.51591 -15.5496
lclavicle -6.26172e-015 -4.53229e-014
lhumerus -38.0557 9.8433 83.3821
lradius 30.0059
lwrist 1.40787
lhand -18.0173 21.5924
lfingers 7.12502
lthumb 8.25361 51.4112
rfemur -5.81913 -5.92277 23.7907
rtibia 35.7701
rfoot -23.9142 -3.91933
rtoes 9.3624
lfemur -11.7899 4.44416 -17.8436
ltibia 33.1526
lfoot -18.5432 -6.98192
ltoes 7.71872
1636
root 8.47064 17.6696 32.0101 -539.503 1.10016 -175.239
lowerback 5.83878 1.72322 3.70667
upperback 2.71148 2.84644 3.40924
thorax -0.478287 1.56853 1.25458
lowerneck -10.9053 2.15076 -9.41354
upperneck 41.495 -2.48422 5.20103
head 17.059 -3.73122 3.06745
rclavicle -1.18277e-014 5.56597e-015
rhumerus -28.3932 -6.67108 -80.9474
rradius 28.0568
rwrist -7.40983
rhand -19.4822 14.9056
rfingers 7.12502
rthumb 6.83972 -14.9639
lclavicle -1.18277e-014 5.56597e-015
lhumerus -39.4902 10.1993 83.1801
lradius 30.3695
lwrist 2.6412
lhand -18.2395 19.6336
lfingers 7.12502
lthumb 8.03917 49.4607
rfemur -6.30037 -6.01617 23.4903
rtibia 37.0276
rfoot -23.5853 -4.24833
rtoes 7.3976
lfemur -11.4964 4.77414 -18.0764
ltibia 33.0016
lfoot -18.4747 -7.45219
ltoes 9.29772
1637
root 8.458 17.6545 31.991 -539.633 1.22194 -175.683
lowerback 5.74357 1.98959 3.83062
upperback 3.65364 3.19512 2.89675
thorax 0.583414 1.78445 0.673866
lowerneck -13.0997 1.57966 -9.52201
upperneck 41.6465 -2.91986 5.59804
head 17.7942 -3.73599 3.23404
rclavicle 1.39149e-015 -1.98785e-014
rhumerus -26.6069 -8.1508 -81.27
rradius 28.2226
rwrist -7.2907
rhand -19.4884 15.2729
rfingers 7.12502
rthumb 6.83367 -14.5969
lclavicle 1.39149e-015 -1.98785e-014
lhumerus -37.062 9.38034 83.3952
lradius 30.2073
lwrist 2.59092
lhand -19.0488 20.3421
lfingers 7.12502
lthumb 7.25808 50.1976
rfemur -6.80697 -6.28347 22.916
rtibia 38.3487
rfoot -23.1021 -4.49618
rtoes 4.81049
lfemur -11.1728 5.15735 -18.5687
ltibia 32.8176
lfoot -18.4801 -7.86974
ltoes 10.6529
1638
root 8.44681 17.6426 31.9708 -539.667 1.15719 -175.963
lowerback 6.25362 2.11211 3.51306
upperback 3.8087 3.37767 2.77138
thorax 0.452249 1.87678 0.692707
lowerneck -14.1208 1.35389 -9.50812
upperneck 41.9595 -3.08207 5.53047
head 18.2824 -3.77994 3.1853
rclavicle 3.3197e-014 1.63003e-014
rhumerus -26.0104 -8.54875 -81.3212
rradius 28.4416
rwrist -7.31168
rhand -19.7203 15.0909
rfingers 7.12502
rthumb 6.60985 -14.7859
lclavicle 3.3197e-014 1.63003e-014
lhumerus -36.1797 9.13902 83.4803
lradius 30.379
lwrist 1.98378
lhand -19.5488 22.5687
lfingers 7.12502
lthumb 6.7754 52.4403
rfemur -7.46875 -6.5536 22.5662
rtibia 39.7415
rfoot -22.8506 -4.91412
rtoes 1.07135
lfemur -10.9185 5.39391 -18.8818
ltibia 32.544
lfoot -18.4292 -8.24918
ltoes 11.6463
1639
root 8.4352 17.6432 31.9498 -539.677 0.895912 -176.155
lowerback 6.23712 1.64701 2.5237
upperback 3.06748 2.68785 3.23498
thorax -0.378647 1.48433 1.73802
lowerneck -11.6234 2.27919 -9.78221
upperneck 42.0307 -2.16108 5.15147
head 17.5202 -3.68922 3.1749
rclavicle 2.45499e-014 2.38542e-015
rhumerus -27.1268 -6.29971 -81.3465
rradius 28.5572
rwrist -7.58677
rhand -20.0981 14.728
rfingers 7.12502
rthumb 6.24515 -15.1599
lclavicle 2.45499e-014 2.38542e-015
lhumerus -38.0509 10.5172 83.1619
lradius 30.8337
lwrist 2.08386
lhand -19.1888 22.506
lfingers 7.12502
lthumb 7.12289 52.3661
rfemur -8.18038 -6.874 22.3273
rtibia 41.1719
rfoot -22.6782 -5.31307
rtoes -1.75047
lfemur -10.7103 5.35657 -19.1079
ltibia 32.2215
lfoot -18.3071 -8.50877
ltoes 10.9545
1640
root 8.42154 17.654 31.9258 -539.772 0.834313 -176.525
lowerback 6.33981 1.13121 1.13585
upperback 2.39503 1.92774 3.78341
thorax -1.18032 1.08018 3.11877
lowerneck -9.43367 3.2952 -9.96975
upperneck 42.1944 -1.023 4.47879
head 16.8973 -3.53288 3.0332
rclavicle -1.41137e-014 -3.02153e-014
rhumerus -28.2804 -3.54434 -81.399
rradius 28.8805
rwrist -7.98914
rhand -20.2205 14.2915
rfingers 7.12502
rthumb 6.12692 -15.5999
lclavicle -1.41137e-014 -3.02153e-014
lhumerus -39.9682 12.0167 83.0136
lradius 31.2735
lwrist 3.3597
lhand -18.5812 20.3131
lfingers 7.12502
lthumb 7.70937 50.1525
rfemur -8.83207 -7.08881 21.8004
rtibia 42.6018
rfoot -22.2891 -5.05775
rtoes -0.919193
lfemur -10.3678 5.21771 -19.5596
ltibia 31.8896
lfoot -18.2259 -8.44294
ltoes 9.92443
1641
root 8.40967 17.6572 31.8998 -539.861 0.988707 -176.725
lowerback 6.32336 1.44476 1.44217
upperback 2.73882 2.3367 3.29971
thorax -0.804541 1.28334 2.42291
lowerneck -9.93365 3.00215 -9.55341
upperneck 42.2361 -1.47938 4.59336
head 17.1021 -3.59388 2.9526
rclavicle -1.64991e-014 -1.19271e-014
rhumerus -27.7727 -4.89957 -81.6595
rradius 29.2152
rwrist -7.74665
rhand -20.2289 13.7837
rfingers 7.12502
rthumb 6.11883 -16.1079
lclavicle -1.64991e-014 -1.19271e-014
lhumerus -38.8522 10.7851 83.0387
lradius 31.3073
lwrist 4.04458
lhand -18.4886 18.9023
lfingers 7.12502
lthumb 7.79881 48.7385
rfemur -9.46993 -6.80408 21.5011
rtibia 43.9972
rfoot -22.0829 -4.80217
rtoes 1.6605
lfemur -10.0013 5.21529 -19.8268
ltibia 31.5781
lfoot -18.0782 -8.21908
ltoes 9.68214
1642
root 8.39673 17.6552 31.8731 -539.991 0.948554 -176.454
lowerback 5.98006 1.747 2.58747
upperback 3.33276 2.78228 2.71872
thorax 0.0647893 1.5328 1.18297
lowerneck -10.4285 2.58645 -9.04347
upperneck 41.9446 -2.14431 5.02803
head 17.1398 -3.62774 2.97227
rclavicle -2.68359e-015 -1.59028e-014
rhumerus -26.9293 -6.91117 -82.0754
rradius 29.4891
rwrist -7.66304
rhand -20.0083 13.3408
rfingers 7.12502
rthumb 6.33176 -16.5446
lclavicle -2.68359e-015 -1.59028e-014
lhumerus -37.2442 9.62611 82.6473
lradius 31.3614
lwrist 2.99908
lhand -18.9397 20.9458
lfingers 7.12502
lthumb 7.36337 50.7977
rfemur -9.98976 -6.6497 21.7405
rtibia 45.3366
rfoot -22.2506 -4.75223
rtoes 3.31115
lfemur -9.59164 5.10001 -19.572
ltibia 31.2705
lfoot -17.9489 -7.91034
ltoes 8.42429
1643
root 8.38319 17.6601 31.8472 -540.104 0.741753 -176.213
lowerback 6.64015 1.72605 2.65951
upperback 3.047 2.79995 2.8821
thorax -0.600618 1.53493 1.27571
lowerneck -10.2204 2.70114 -9.0432
upperneck 42.2607 -2.13076 4.95705
head 17.2639 -3.6899 2.93488
rclavicle 1.88845e-014 3.81667e-014
rhumerus -27.4327 -6.88421 -81.8816
rradius 29.9245
rwrist -8.05165
rhand -19.8299 13.2321
rfingers 7.12502
rthumb 6.50398 -16.6481
lclavicle 1.88845e-014 3.81667e-014
lhumerus -37.6118 9.88183 82.4783
lradius 31.7839
lwrist 2.21303
lhand -19.2983 23.4695
lfingers 7.12502
lthumb 7.01716 53.3332
rfemur -10.5602 -6.96672 21.93
rtibia 46.6248
rfoot -22.3559 -4.61872
rtoes 4.31766
lfemur -9.22482 4.90777 -19.3475
ltibia 30.9683
lfoot -17.8817 -7.73627
ltoes 7.04134
